<svg width="377" height="258" viewBox="0 0 377 258" fill="none" xmlns="http://www.w3.org/2000/svg">
<g clip-path="url(#clip0_77_59)">
<rect width="377" height="258" fill="url(#paint0_linear_77_59)"/>
<path d="M149.878 200.248L145.204 200.775L143.853 192.08C143.602 190.361 143.389 189.061 143.215 188.179L143.131 188.189C142.988 188.918 142.852 190.042 142.724 191.56L142.663 192.271L141.726 201.168L137.052 201.696L134.553 194.06L134.117 192.7C133.532 191.019 133.133 189.899 132.92 189.341L132.836 189.35C132.867 190.286 132.973 191.805 133.155 193.907C133.151 194.039 133.165 194.244 133.196 194.523L133.796 202.063L129.094 202.594L127.967 186.66L135.924 185.761L138.062 192.452L138.604 194.25C138.687 193.659 138.754 193.003 138.804 192.284L139.319 185.378L147.443 184.461L149.878 200.248ZM159.838 199.49C157.074 199.802 154.923 199.387 153.385 198.246C151.863 197.084 150.938 195.056 150.611 192.163C150.29 189.325 150.816 187.171 152.19 185.701C153.564 184.231 155.503 183.355 158.007 183.072C163.275 182.477 166.206 184.805 166.8 190.054C167.101 192.706 166.688 194.866 165.561 196.534C164.454 198.199 162.546 199.185 159.838 199.49ZM159.355 196.22C159.874 196.161 160.301 196.028 160.634 195.822C160.965 195.597 161.208 195.25 161.362 194.782C161.665 193.977 161.719 192.712 161.524 190.987C161.333 189.3 161 188.097 160.524 187.381C160.046 186.646 159.286 186.318 158.243 186.398C157.853 186.442 157.451 186.535 157.034 186.676C156.635 186.796 156.388 186.937 156.293 187.098C156.1 187.382 155.987 187.959 155.954 188.827C155.937 189.674 155.985 190.598 156.098 191.6C156.275 193.158 156.552 194.282 156.931 194.972C157.196 195.487 157.527 195.844 157.926 196.043C158.322 196.224 158.798 196.283 159.355 196.22ZM179.287 188.447C180.565 188.453 181.513 188.778 182.131 189.423C182.746 190.048 183.11 190.852 183.221 191.836C183.29 192.448 183.264 193.042 183.141 193.62C183.017 194.179 182.847 194.667 182.631 195.086C182.413 195.487 182.218 195.753 182.045 195.885C181.358 196.451 179.122 196.947 175.338 197.375L169.94 197.984L168.145 182.125L174.684 181.387C176.168 181.22 177.374 181.168 178.301 181.232C179.246 181.276 180.037 181.544 180.675 182.035C181.311 182.508 181.692 183.301 181.818 184.414C181.927 185.379 181.774 186.185 181.359 186.833C180.962 187.479 180.266 187.971 179.271 188.308L179.287 188.447ZM176.595 184.581C176.389 184.416 176.153 184.33 175.89 184.322C175.642 184.294 175.249 184.31 174.712 184.371C174.174 184.431 173.767 184.487 173.49 184.537L173.875 187.931L174.153 187.9C174.246 187.889 174.635 187.845 175.322 187.768C176.008 187.69 176.457 187.593 176.669 187.475C176.828 187.382 176.954 187.17 177.048 186.84C177.161 186.508 177.196 186.157 177.154 185.786C177.091 185.229 176.905 184.828 176.595 184.581ZM178.12 193.82C178.237 193.694 178.316 193.479 178.357 193.174C178.414 192.848 178.425 192.527 178.389 192.212C178.345 191.822 178.248 191.467 178.099 191.146C177.966 190.804 177.808 190.568 177.625 190.438C177.439 190.29 177.185 190.206 176.863 190.186C176.56 190.164 176.047 190.194 175.324 190.275C174.86 190.328 174.471 190.381 174.158 190.435L174.615 194.469C175.489 194.389 176.267 194.292 176.949 194.178C177.629 194.045 178.019 193.925 178.12 193.82ZM194.298 191.713L189.679 192.234L189.238 195.806L184.118 196.384L187.443 179.947L193.981 179.209L200.673 194.515L195.526 195.096L194.298 191.713ZM190.946 183.018L189.969 189.073L193.28 188.7L191.058 183.005L190.946 183.018ZM214.56 192.948L209.552 193.513L208.151 181.132L203.671 181.638L203.278 178.16L217.245 176.584L217.639 180.061L213.159 180.567L214.56 192.948ZM228.235 187.882L223.616 188.404L223.175 191.976L218.055 192.554L221.38 176.117L227.918 175.379L234.61 190.685L229.463 191.266L228.235 187.882ZM224.883 179.187L223.906 185.243L227.217 184.87L224.995 179.175L224.883 179.187ZM250.796 188.858L245.315 189.477L241.555 183.899C241.489 183.813 241.311 183.57 241.022 183.171C240.751 182.769 240.455 182.389 240.132 182.031L241.03 189.961L236.022 190.526L234.226 174.667L239.235 174.102L240.05 181.308C240.326 180.92 240.552 180.509 240.728 180.076C240.921 179.622 241.032 179.356 241.06 179.278L243.436 173.628L248.722 173.031L246.152 178.703C246.105 178.784 246.006 178.992 245.857 179.328C245.707 179.665 245.536 179.984 245.345 180.288C245.171 180.57 244.975 180.837 244.759 181.086C245.129 181.364 245.434 181.649 245.673 181.941C245.929 182.213 246.225 182.583 246.56 183.053L250.796 188.858ZM260.813 184.206L256.194 184.727L255.753 188.299L250.634 188.877L253.958 172.44L260.496 171.702L267.189 187.008L262.041 187.589L260.813 184.206ZM257.462 175.511L256.485 181.566L259.796 181.193L257.573 175.498L257.462 175.511Z" fill="#F7A518"/>
<path d="M173.136 213.385L173.253 214.485L167.111 215.179L165.984 205.212L172.126 204.517L172.251 205.616L167.458 206.158L167.832 209.469L171.714 209.03L171.833 210.087L167.952 210.526L168.336 213.927L173.136 213.385ZM174.206 209.622L177.642 209.233L177.761 210.284L174.325 210.672L174.206 209.622ZM184.45 204.702C184.417 204.776 184.376 204.835 184.329 204.878C184.287 204.915 184.231 204.938 184.161 204.946C184.082 204.955 183.985 204.926 183.869 204.859C183.754 204.792 183.61 204.722 183.437 204.647C183.268 204.568 183.066 204.502 182.83 204.448C182.598 204.395 182.322 204.386 182.003 204.422C181.701 204.456 181.439 204.528 181.217 204.638C180.998 204.742 180.818 204.873 180.676 205.03C180.539 205.186 180.442 205.364 180.384 205.563C180.327 205.758 180.31 205.964 180.335 206.182C180.366 206.46 180.46 206.684 180.615 206.854C180.775 207.02 180.973 207.154 181.21 207.259C181.452 207.363 181.72 207.448 182.014 207.513C182.312 207.574 182.615 207.638 182.923 207.706C183.236 207.774 183.541 207.857 183.839 207.955C184.141 208.048 184.414 208.179 184.658 208.349C184.908 208.518 185.115 208.736 185.282 209.004C185.453 209.271 185.562 209.611 185.609 210.023C185.658 210.459 185.63 210.878 185.525 211.28C185.42 211.677 185.239 212.033 184.984 212.348C184.733 212.663 184.408 212.925 184.009 213.135C183.615 213.344 183.153 213.478 182.624 213.538C181.975 213.611 181.373 213.562 180.818 213.39C180.263 213.213 179.775 212.947 179.354 212.59L179.672 211.906C179.703 211.851 179.742 211.804 179.79 211.766C179.841 211.723 179.899 211.697 179.964 211.69C180.024 211.683 180.094 211.701 180.174 211.744C180.259 211.781 180.353 211.832 180.459 211.895C180.565 211.958 180.685 212.027 180.821 212.101C180.956 212.174 181.106 212.24 181.272 212.296C181.443 212.352 181.633 212.394 181.843 212.422C182.052 212.445 182.285 212.442 182.54 212.413C182.86 212.377 183.14 212.301 183.38 212.184C183.621 212.068 183.818 211.921 183.972 211.744C184.129 211.562 184.242 211.354 184.31 211.121C184.377 210.888 184.396 210.635 184.365 210.361C184.331 210.06 184.233 209.822 184.073 209.648C183.916 209.468 183.719 209.326 183.482 209.221C183.245 209.117 182.977 209.036 182.68 208.981C182.382 208.921 182.079 208.861 181.772 208.802C181.464 208.738 181.16 208.66 180.858 208.567C180.556 208.474 180.283 208.341 180.038 208.167C179.793 207.992 179.584 207.765 179.411 207.484C179.242 207.197 179.133 206.834 179.083 206.394C179.044 206.041 179.072 205.693 179.17 205.348C179.272 205.003 179.438 204.689 179.669 204.404C179.904 204.119 180.203 203.879 180.566 203.683C180.934 203.486 181.366 203.36 181.862 203.304C182.418 203.241 182.934 203.272 183.408 203.397C183.887 203.521 184.319 203.73 184.705 204.025L184.45 204.702ZM190.256 207.702C190.641 207.658 190.973 207.569 191.254 207.434C191.539 207.298 191.771 207.129 191.95 206.925C192.133 206.717 192.261 206.479 192.335 206.213C192.408 205.946 192.427 205.66 192.393 205.354C192.321 204.719 192.068 204.245 191.633 203.932C191.203 203.619 190.589 203.508 189.792 203.598L188.192 203.779L188.656 207.883L190.256 207.702ZM189.671 202.534C190.302 202.462 190.858 202.475 191.338 202.571C191.823 202.661 192.233 202.824 192.57 203.058C192.906 203.293 193.17 203.592 193.362 203.955C193.558 204.318 193.682 204.734 193.735 205.202C193.787 205.666 193.754 206.099 193.635 206.503C193.517 206.906 193.315 207.264 193.031 207.578C192.752 207.892 192.39 208.153 191.944 208.363C191.502 208.568 190.98 208.705 190.377 208.773L188.777 208.954L189.199 212.682L187.856 212.834L186.729 202.866L189.671 202.534ZM204.857 205.868C204.942 206.614 204.901 207.314 204.735 207.967C204.569 208.615 204.296 209.188 203.915 209.687C203.535 210.185 203.055 210.594 202.476 210.913C201.901 211.227 201.247 211.426 200.514 211.508C199.782 211.591 199.1 211.544 198.47 211.366C197.838 211.184 197.282 210.892 196.8 210.491C196.318 210.09 195.923 209.592 195.616 208.998C195.309 208.398 195.113 207.726 195.029 206.979C194.945 206.232 194.985 205.535 195.152 204.887C195.317 204.234 195.591 203.659 195.971 203.16C196.351 202.657 196.828 202.246 197.403 201.927C197.977 201.609 198.631 201.408 199.363 201.325C200.096 201.242 200.778 201.292 201.409 201.474C202.045 201.656 202.604 201.95 203.087 202.356C203.569 202.757 203.963 203.257 204.271 203.856C204.577 204.451 204.773 205.121 204.857 205.868ZM203.473 206.024C203.404 205.412 203.258 204.872 203.036 204.404C202.814 203.936 202.532 203.552 202.188 203.253C201.843 202.949 201.443 202.732 200.987 202.6C200.53 202.468 200.033 202.433 199.495 202.494C198.962 202.554 198.488 202.699 198.072 202.929C197.657 203.16 197.313 203.461 197.041 203.835C196.772 204.204 196.582 204.641 196.47 205.146C196.358 205.652 196.337 206.211 196.406 206.823C196.475 207.435 196.621 207.975 196.843 208.443C197.064 208.907 197.347 209.291 197.692 209.594C198.04 209.893 198.442 210.108 198.899 210.24C199.355 210.367 199.849 210.4 200.382 210.34C200.92 210.279 201.397 210.136 201.813 209.91C202.229 209.68 202.571 209.381 202.839 209.013C203.107 208.639 203.297 208.202 203.409 207.701C203.521 207.195 203.542 206.636 203.473 206.024ZM209.531 205.177C209.921 205.133 210.259 205.048 210.545 204.922C210.835 204.79 211.071 204.628 211.251 204.434C211.435 204.234 211.564 204.008 211.639 203.756C211.714 203.503 211.735 203.231 211.702 202.938C211.634 202.345 211.389 201.919 210.965 201.662C210.542 201.405 209.941 201.32 209.162 201.408L207.687 201.575L208.112 205.338L209.531 205.177ZM214.717 209.797L213.521 209.932C213.275 209.96 213.083 209.886 212.946 209.709L209.956 206.44C209.864 206.337 209.77 206.268 209.672 206.232C209.578 206.191 209.436 206.182 209.246 206.203L208.223 206.319L208.693 210.478L207.351 210.63L206.224 200.662L209.041 200.344C209.672 200.273 210.224 200.276 210.698 200.354C211.171 200.427 211.57 200.568 211.894 200.775C212.222 200.982 212.478 201.249 212.661 201.576C212.843 201.898 212.957 202.27 213.005 202.692C213.045 203.045 213.027 203.38 212.95 203.699C212.873 204.018 212.742 204.312 212.557 204.582C212.375 204.847 212.141 205.082 211.854 205.288C211.572 205.494 211.244 205.662 210.869 205.794C211.052 205.872 211.216 205.997 211.362 206.168L214.717 209.797ZM221.488 200.085L218.261 200.45L219.259 209.284L217.917 209.435L216.918 200.602L213.684 200.967L213.556 199.834L221.36 198.951L221.488 200.085ZM228.073 199.77C228.039 199.845 227.999 199.903 227.952 199.946C227.909 199.984 227.853 200.007 227.784 200.014C227.705 200.023 227.608 199.994 227.492 199.928C227.376 199.861 227.232 199.79 227.059 199.716C226.891 199.636 226.688 199.57 226.452 199.517C226.221 199.463 225.945 199.454 225.625 199.491C225.324 199.525 225.062 199.596 224.839 199.706C224.621 199.811 224.441 199.941 224.299 200.098C224.162 200.255 224.064 200.432 224.007 200.632C223.949 200.826 223.932 201.032 223.957 201.25C223.989 201.528 224.082 201.753 224.237 201.923C224.397 202.088 224.595 202.223 224.833 202.327C225.075 202.432 225.342 202.516 225.636 202.582C225.934 202.642 226.237 202.706 226.546 202.775C226.859 202.843 227.164 202.926 227.462 203.024C227.763 203.116 228.036 203.247 228.281 203.417C228.53 203.586 228.738 203.804 228.904 204.072C229.076 204.339 229.184 204.679 229.231 205.092C229.28 205.528 229.253 205.947 229.148 206.348C229.042 206.745 228.862 207.101 228.606 207.417C228.355 207.732 228.03 207.994 227.631 208.203C227.237 208.412 226.776 208.547 226.247 208.606C225.598 208.68 224.996 208.63 224.441 208.458C223.886 208.282 223.398 208.015 222.977 207.659L223.294 206.975C223.325 206.92 223.365 206.873 223.412 206.835C223.463 206.791 223.522 206.766 223.587 206.759C223.647 206.752 223.717 206.77 223.797 206.812C223.881 206.85 223.976 206.9 224.082 206.963C224.187 207.026 224.308 207.095 224.443 207.169C224.578 207.243 224.729 207.308 224.895 207.364C225.066 207.42 225.256 207.462 225.466 207.49C225.675 207.513 225.907 207.511 226.162 207.482C226.482 207.446 226.762 207.369 227.003 207.253C227.243 207.136 227.44 206.99 227.594 206.813C227.752 206.63 227.865 206.423 227.932 206.19C228 205.957 228.018 205.703 227.987 205.43C227.953 205.128 227.856 204.89 227.695 204.716C227.539 204.536 227.342 204.394 227.105 204.29C226.867 204.185 226.6 204.105 226.302 204.049C226.004 203.989 225.702 203.929 225.395 203.87C225.087 203.806 224.782 203.728 224.48 203.635C224.179 203.543 223.905 203.409 223.66 203.235C223.415 203.061 223.206 202.833 223.034 202.552C222.865 202.266 222.756 201.902 222.706 201.462C222.666 201.109 222.695 200.761 222.792 200.417C222.894 200.072 223.06 199.757 223.291 199.473C223.527 199.188 223.826 198.947 224.189 198.751C224.556 198.555 224.988 198.428 225.485 198.372C226.041 198.309 226.556 198.34 227.031 198.465C227.51 198.589 227.942 198.799 228.328 199.093L228.073 199.77Z" fill="white"/>
<path d="M198.432 75.0084C193.684 72.239 186.224 69.8088 179.272 68.848C176.051 68.3958 170.794 68.0002 167.573 68.0002H161.695L163.899 69.4696C165.086 70.2609 167.064 71.8434 168.195 72.9738C170.568 75.2345 170.286 75.9127 166.895 75.9127C159.547 75.9127 144.683 80.2646 134.51 85.3512C125.524 89.8161 125.354 90.0422 124.619 94.168C123.998 97.8982 123.772 102.476 124.28 102.476C124.45 102.476 126.371 101.289 128.632 99.8198C134.623 96.0331 145.701 90.4943 152.087 88.1771C160.508 85.1251 160.847 85.1251 156.722 88.1771C145.079 96.7113 136.149 107.506 129.819 120.449C126.824 126.609 126.824 127.061 130.497 134.578C138.918 151.986 153.443 164.081 171.755 168.941C176.559 170.185 185.602 171.541 185.602 171.032C185.602 170.919 184.754 169.111 183.681 166.963C177.972 155.716 176.277 139.891 179.329 125.931C180.629 119.827 182.889 113.554 183.172 115.193C183.794 118.866 183.624 118.866 187.411 115.193C192.836 109.937 201.032 106.432 207.927 106.432C213.974 106.432 221.039 109.315 222.452 112.367C223.356 114.401 223.921 113.61 224.317 109.654C225.165 101.741 221.717 95.694 214.426 92.1899C210.64 90.3813 210.47 90.2117 209.283 86.9902C207.701 82.8079 203.123 77.7213 198.432 75.0084Z" fill="white"/>
<path d="M250.033 125.083C252.011 123.557 252.237 123.049 253.085 118.471C253.65 115.701 253.989 111.858 253.876 109.823L253.706 106.15L251.163 109.202C246.133 115.193 236.525 122.71 228.499 126.948C221.095 130.848 211.487 133.504 204.31 133.617L201.145 133.674L204.253 134.465C212.448 136.443 225.221 135.822 234.49 132.996C238.955 131.583 246.811 127.627 250.033 125.083Z" fill="white"/>
<path d="M208.775 141.474C200.24 139.156 193.458 135.426 187.298 129.661C185.602 128.079 184.133 126.779 184.02 126.779C183.963 126.779 183.963 127.627 184.133 128.587C184.302 129.605 184.754 132.092 185.037 134.126C186.789 144.808 192.893 157.864 200.466 167.02C202.953 170.072 202.501 170.015 209.735 167.698C222.791 163.515 235.112 154.19 243.194 142.321C245.681 138.648 248.45 133.391 247.659 133.9C247.263 134.126 245.85 135.03 244.55 135.935C238.503 140.004 231.382 141.982 221.208 142.434C214.426 142.717 213.07 142.604 208.775 141.474Z" fill="white"/>
<path d="M198.432 75.0084C193.684 72.239 186.224 69.8088 179.272 68.848C176.051 68.3958 170.794 68.0002 167.573 68.0002H161.695L163.899 69.4696C165.086 70.2609 167.064 71.8434 168.195 72.9738C170.568 75.2345 170.286 75.9127 166.895 75.9127C159.547 75.9127 144.683 80.2646 134.51 85.3512C125.524 89.8161 125.354 90.0422 124.619 94.168C123.998 97.8982 123.772 102.476 124.28 102.476C124.45 102.476 126.371 101.289 128.632 99.8198C134.623 96.0331 145.701 90.4943 152.087 88.1771C160.508 85.1251 160.847 85.1251 156.722 88.1771C145.079 96.7113 136.149 107.506 129.819 120.449C126.824 126.609 126.824 127.061 130.497 134.578C138.918 151.986 153.443 164.081 171.755 168.941C176.559 170.185 185.602 171.541 185.602 171.032C185.602 170.919 184.754 169.111 183.681 166.963C177.972 155.716 176.277 139.891 179.329 125.931C180.629 119.827 182.889 113.554 183.172 115.193C183.794 118.866 183.624 118.866 187.411 115.193C192.836 109.937 201.032 106.432 207.927 106.432C213.974 106.432 221.039 109.315 222.452 112.367C223.356 114.401 223.921 113.61 224.317 109.654C225.165 101.741 221.717 95.694 214.426 92.1899C210.64 90.3813 210.47 90.2117 209.283 86.9902C207.701 82.8079 203.123 77.7213 198.432 75.0084Z" fill="white"/>
<path d="M250.033 125.083C252.011 123.557 252.237 123.049 253.085 118.471C253.65 115.701 253.989 111.858 253.876 109.823L253.706 106.15L251.163 109.202C246.133 115.193 236.525 122.71 228.499 126.948C221.095 130.848 211.487 133.504 204.31 133.617L201.145 133.674L204.253 134.465C212.448 136.443 225.221 135.822 234.49 132.996C238.955 131.583 246.811 127.627 250.033 125.083Z" fill="white"/>
<path d="M208.775 141.474C200.24 139.156 193.458 135.426 187.298 129.661C185.602 128.079 184.133 126.779 184.02 126.779C183.963 126.779 183.963 127.627 184.133 128.587C184.302 129.605 184.754 132.092 185.037 134.126C186.789 144.808 192.893 157.864 200.466 167.02C202.953 170.072 202.501 170.015 209.735 167.698C222.791 163.515 235.112 154.19 243.194 142.321C245.681 138.648 248.45 133.391 247.659 133.9C247.263 134.126 245.85 135.03 244.55 135.935C238.503 140.004 231.382 141.982 221.208 142.434C214.426 142.717 213.07 142.604 208.775 141.474Z" fill="white"/>
<path d="M191.737 87.7811C194.619 90.5505 196.371 91.1722 198.914 90.2114C200.553 89.5897 195.354 86.5378 190.776 85.4639L188.854 84.9552L191.737 87.7811Z" fill="black"/>
</g>
<defs>
<linearGradient id="paint0_linear_77_59" x1="188.5" y1="0" x2="188.5" y2="258" gradientUnits="userSpaceOnUse">
<stop offset="0.682292" stop-color="#151212"/>
<stop offset="0.9998" stop-color="#09486B"/>
</linearGradient>
<clipPath id="clip0_77_59">
<rect width="377" height="258" fill="white"/>
</clipPath>
</defs>
</svg>
