


<svg width="1604" height="1604" viewBox="0 0 1604 1604" class="gold" fill="none" xmlns="http://www.w3.org/2000/svg">

 
<rect x="0.5" y="0.5" width="1603" height="1603" fill="url(#paint0_linear_70_2)"/>
<path class="gold" d="M891.159 391.113C846.373 364.988 775.995 342.061 710.415 332.998C680.025 328.732 630.44 325 600.05 325H544.6L565.394 338.862C576.59 346.327 595.251 361.255 605.914 371.919C628.307 393.245 625.642 399.643 593.652 399.643C524.34 399.643 384.117 440.697 288.147 488.682C203.373 530.803 201.774 532.936 194.842 571.857C188.978 607.046 186.845 650.232 191.643 650.232C193.243 650.232 211.371 639.036 232.697 625.174C289.213 589.451 393.714 537.201 453.962 515.341C533.404 486.55 536.603 486.55 497.682 515.341C387.849 595.849 303.609 697.684 243.894 819.78C215.636 877.895 215.636 882.16 250.292 953.072C329.734 1117.29 466.757 1231.39 639.504 1277.24C684.823 1288.97 770.13 1301.76 770.13 1296.97C770.13 1295.9 762.132 1278.84 752.002 1258.58C698.152 1152.48 682.157 1003.19 710.948 871.497C723.211 813.915 744.538 754.733 747.203 770.195C753.068 804.851 751.469 804.851 787.191 770.195C838.375 720.611 915.684 687.554 980.731 687.554C1037.78 687.554 1104.43 714.746 1117.75 743.537C1126.29 762.731 1131.62 755.267 1135.35 717.945C1143.35 643.301 1110.82 586.252 1042.05 553.196C1006.32 536.134 1004.72 534.535 993.527 504.144C978.598 464.69 935.411 416.705 891.159 391.113Z" fill="white"/>
<path class="gold" d="M1377.94 863.499C1396.6 849.104 1398.73 844.305 1406.73 801.119C1412.06 774.994 1415.26 738.738 1414.2 719.544L1412.6 684.888L1388.6 713.679C1341.15 770.195 1250.51 841.107 1174.8 881.094C1104.96 917.883 1014.32 942.941 946.608 944.008L916.751 944.541L946.075 952.005C1023.38 970.666 1143.88 964.801 1231.32 938.143C1273.44 924.814 1347.55 887.492 1377.94 863.499Z" fill="white"/>
<path class="gold" d="M988.728 1018.12C908.22 996.258 844.24 961.069 786.125 906.686C770.13 891.758 756.267 879.495 755.201 879.495C754.668 879.495 754.668 887.492 756.268 896.556C757.867 906.153 762.132 929.613 764.798 948.807C781.326 1049.58 838.908 1172.74 910.353 1259.11C933.812 1287.9 929.547 1287.37 997.792 1265.51C1120.95 1226.05 1237.18 1138.08 1313.43 1026.12C1336.89 991.46 1363.01 941.875 1355.55 946.674C1351.82 948.807 1338.49 957.337 1326.22 965.868C1269.17 1004.26 1202 1022.92 1106.03 1027.18C1042.05 1029.85 1029.25 1028.78 988.728 1018.12Z" fill="white"/>
<path class="gold" d="M891.159 391.113C846.373 364.988 775.995 342.061 710.415 332.998C680.025 328.732 630.44 325 600.05 325H544.6L565.394 338.862C576.59 346.327 595.251 361.255 605.914 371.919C628.307 393.245 625.642 399.643 593.652 399.643C524.34 399.643 384.117 440.697 288.147 488.682C203.373 530.803 201.774 532.936 194.842 571.857C188.978 607.046 186.845 650.232 191.643 650.232C193.243 650.232 211.371 639.036 232.697 625.174C289.213 589.451 393.714 537.201 453.962 515.341C533.404 486.55 536.603 486.55 497.682 515.341C387.849 595.849 303.609 697.684 243.894 819.78C215.636 877.895 215.636 882.16 250.292 953.072C329.734 1117.29 466.757 1231.39 639.504 1277.24C684.823 1288.97 770.13 1301.76 770.13 1296.97C770.13 1295.9 762.132 1278.84 752.002 1258.58C698.152 1152.48 682.157 1003.19 710.948 871.497C723.211 813.915 744.538 754.733 747.203 770.195C753.068 804.851 751.469 804.851 787.191 770.195C838.375 720.611 915.684 687.554 980.731 687.554C1037.78 687.554 1104.43 714.746 1117.75 743.537C1126.29 762.731 1131.62 755.267 1135.35 717.945C1143.35 643.301 1110.82 586.252 1042.05 553.196C1006.32 536.134 1004.72 534.535 993.527 504.144C978.598 464.69 935.411 416.705 891.159 391.113Z" fill="white"/>
<path class="gold" d="M1377.94 863.499C1396.6 849.104 1398.73 844.305 1406.73 801.119C1412.06 774.994 1415.26 738.738 1414.2 719.544L1412.6 684.888L1388.6 713.679C1341.15 770.195 1250.51 841.107 1174.8 881.094C1104.96 917.883 1014.32 942.941 946.608 944.008L916.751 944.541L946.075 952.005C1023.38 970.666 1143.88 964.801 1231.32 938.143C1273.44 924.814 1347.55 887.492 1377.94 863.499Z" fill="white"/>
<path d="M988.728 1018.12C908.22 996.258 844.24 961.069 786.125 906.686C770.13 891.758 756.267 879.495 755.201 879.495C754.668 879.495 754.668 887.492 756.268 896.556C757.867 906.153 762.132 929.613 764.798 948.807C781.326 1049.58 838.908 1172.74 910.353 1259.11C933.812 1287.9 929.547 1287.37 997.792 1265.51C1120.95 1226.05 1237.18 1138.08 1313.43 1026.12C1336.89 991.46 1363.01 941.875 1355.55 946.674C1351.82 948.807 1338.49 957.337 1326.22 965.868C1269.17 1004.26 1202 1022.92 1106.03 1027.18C1042.05 1029.85 1029.25 1028.78 988.728 1018.12Z" fill="white"/>
<path d="M828.001 511.609C855.192 537.734 871.721 543.599 895.713 534.535C911.175 528.67 862.124 499.879 818.937 489.749L800.809 484.951L828.001 511.609Z" fill="black"/>
<rect x="0.5" y="0.5" width="1603" height="1603" 	/>
<defs>
<linearGradient id="paint0_linear_70_2" x1="802" y1="0" x2="802" y2="1604"  gradientUnits="userSpaceOnUse">
<stop offset="0.682292"/>
<stop offset="0.9998" stop-color="#681250"/>
</linearGradient>
</defs>
</svg>
