<svg width="34" height="34" viewBox="0 0 290 50" fill="none" xmlns="http://www.w3.org/2000/svg">
<path d="M102.421 6.57228C93.0584 -2.19076 78.5041 -2.19076 69.1414 6.57228L61.0339 14.1604C58.7487 16.2991 55.7647 17.5352 52.6368 17.6386L41.5382 18.0058C28.7213 18.4299 18.4299 28.7213 18.0058 41.5382L17.6386 52.6368C17.5352 55.7647 16.2991 58.7487 14.1604 61.0339L6.57228 69.1414C-2.19076 78.5041 -2.19076 93.0584 6.57228 102.421L14.1604 110.529C16.2991 112.814 17.5352 115.798 17.6386 118.926L18.0058 130.024C18.4299 142.841 28.7213 153.133 41.5382 153.557L52.6368 153.924C55.7647 154.027 58.7487 155.263 61.0339 157.402L69.1414 164.99C78.5041 173.753 93.0584 173.753 102.421 164.99L110.529 157.402C112.814 155.263 115.798 154.027 118.926 153.924L130.024 153.557C142.841 153.133 153.133 142.841 153.557 130.024L153.924 118.926C154.027 115.798 155.263 112.814 157.402 110.529L164.99 102.421C173.753 93.0584 173.753 78.5041 164.99 69.1414L157.402 61.0339C155.263 58.7487 154.027 55.7647 153.924 52.6368L153.557 41.5382C153.133 28.7213 142.841 18.4299 130.024 18.0058L118.926 17.6386C115.798 17.5352 112.814 16.2991 110.529 14.1604L102.421 6.57228Z" fill="url(#myPaint)"/>
<path d="M121.222 59.5119C123.486 61.6254 123.603 65.1694 121.484 67.427L79.4282 112.227C78.3667 113.358 76.8825 114 75.329 114C73.7755 114 72.2914 113.358 71.2295 112.227L51.5161 91.227C49.3966 88.9694 49.5137 85.4254 51.7778 83.312C54.0416 81.1983 57.5953 81.315 59.7146 83.573L75.329 100.206L113.285 59.7729C115.405 57.515 118.958 57.3982 121.222 59.5119Z" fill="url(#myPaint2023)"/>
<defs>
<linearGradient id="myPaint" x1="219.154" y1="206.227" x2="66.9809" y2="28.202" gradientUnits="userSpaceOnUse">
<stop offset="0.427083" stop-color="#7A28A0"/>
<stop offset="1" stop-color="#16BCD3"/>
</linearGradient>
<linearGradient id="myPaint2023" x1="194.429" y1="-3.28161" x2="45.4794" y2="-178.013" gradientUnits="userSpaceOnUse">
<stop offset="0.15625" stop-color="white"/>
<stop offset="1" stop-color="white"/>
</linearGradient>
</defs>
</svg>
